<?xml version="1.0" ?>
<!DOCTYPE svg  PUBLIC '-//W3C//DTD SVG 1.1//EN'  'http://www.w3.org/Graphics/SVG/1.1/DTD/svg11.dtd'>
<!-- Uploaded to: SVG Repo, www.svgrepo.com, Generator: SVG Repo Mixer Tools -->
<svg fill="#000000" width="800px" height="800px" viewBox="0 0 512 512" enable-background="new 0 0 512 512" id="Jacket" version="1.1" xml:space="preserve" xmlns="http://www.w3.org/2000/svg" xmlns:xlink="http://www.w3.org/1999/xlink">
<g>
<circle cx="336.186" cy="96.72" r="5.75"/>
<path d="M305.469,150.77c3.174,0,5.75-2.576,5.75-5.75c0-3.174-2.576-5.75-5.75-5.75c-3.186,0-5.75,2.576-5.75,5.75   C299.719,148.194,302.283,150.77,305.469,150.77z"/>
<circle cx="203.373" cy="145.02" r="5.75"/>
<circle cx="176.393" cy="96.72" r="5.75"/>
<path d="M124.186,220.271c0.24,0.051,0.479,0.075,0.715,0.075c1.597,0,3.031-1.115,3.372-2.74c3.877-18.416,5.062-42.8,3.52-72.478   c-1.145-22.029-3.454-38.937-3.478-39.105c-0.261-1.888-1.997-3.213-3.89-2.946c-1.887,0.26-3.206,2.001-2.945,3.889   c0.091,0.661,9.013,66.598,0.041,109.218C121.127,218.048,122.322,219.878,124.186,220.271z"/>
<path d="M75.59,193.875c0.332,0.1,0.665,0.146,0.993,0.146c1.484,0,2.854-0.965,3.304-2.46l0.333-1.112   c0.548-1.825-0.487-3.748-2.313-4.295c-1.831-0.548-3.749,0.488-4.296,2.313l-0.333,1.112   C72.731,191.404,73.766,193.327,75.59,193.875z"/>
<path d="M456.482,265.604c-10.2-58.615-26.358-110.224-50.854-162.415c-2.35-5.013-5.944-9.345-10.394-12.53   c-22.56-16.158-49.804-28.023-54.438-29.989c-28.276-29.611-42.126-30.514-44.22-30.456l-81.212,0   c-2.495-0.024-16.315,1.295-44.162,30.439c-4.483,1.909-31.848,13.842-54.429,30.001c-4.446,3.172-8.042,7.506-10.4,12.532   c-9.86,21.002-18.202,41.53-25.502,62.754c-0.62,1.802,0.338,3.765,2.141,4.385c0.372,0.128,0.75,0.188,1.122,0.188   c1.432,0,2.771-0.899,3.262-2.329c7.22-20.988,15.469-41.29,25.224-62.066c1.856-3.957,4.679-7.361,8.166-9.85   c15.256-10.917,32.775-19.862,43.545-24.944c-4.207,8.798-8.879,23.55-8.43,45.21c0.022,1.094,0.563,2.112,1.455,2.743   c0.894,0.633,2.03,0.804,3.071,0.463c0.104-0.034,9.764-3.188,21.896-5.791l3.908,26.182c-0.1,0.114-0.211,0.232-0.309,0.345   c-1.994,2.314-2.766,5.363-2.117,8.366c0.588,2.726,2.256,5.005,4.688,6.423l40.93,274.068h-74.302   c-5.499-24.657-10.342-47.181-14.468-67.245l18.259-72.861c0.462-1.848-0.661-3.721-2.508-4.185   c-1.854-0.462-3.723,0.66-4.186,2.509l-14.746,58.846c-10.134-50.766-14.884-82.785-13.075-89.507   c0.493-1.841-0.597-3.734-2.437-4.229c-1.84-0.499-3.732,0.595-4.229,2.436c-3.897,14.495,14.836,104.99,31.244,178.38   c0,0.001,0,0.002,0.001,0.004c0.004,0.018,0.008,0.037,0.012,0.055c2.884,12.896,5.162,22.844,6.284,27.713l-34.87,8.836   c-4.03-12.43-19.215-59.768-25.106-85.297c-0.43-1.855-2.277-3.01-4.138-2.585c-1.856,0.429-3.014,2.28-2.585,4.138   c5.883,25.494,20.87,72.303,25.126,85.443l-9.802,2.483c-14.838-34.746-26.534-74.544-35.729-121.542   c-5.663-28.977-11.011-56.348-5.863-85.939c3.178-18.259,7.021-36.145,11.428-53.161c0.478-1.844-0.631-3.727-2.475-4.205   c-1.843-0.476-3.729,0.631-4.205,2.475c-4.452,17.196-8.337,35.265-11.547,53.708c-5.364,30.847,0.356,60.128,5.89,88.446   c9.53,48.714,21.742,89.818,37.333,125.662c0.559,1.281,1.817,2.074,3.163,2.074c0.28,0,0.565-0.035,0.851-0.107l57.497-14.57   c1.821-0.461,2.939-2.295,2.514-4.125c-0.026-0.113-2.478-10.661-6.09-26.75h111.64c1.905,0,3.45-1.545,3.45-3.449   c0-1.906-1.545-3.45-3.45-3.45H236.41l-15.307-164.459c-0.011-0.103-0.024-0.204-0.043-0.304   c-1.328-7.23-0.509-16.518,2.415-27.592c26.955-44.387,78.322-71.623,99.2-81.287c2.825-1.31,4.82-3.806,5.478-6.85   c0.648-3.002-0.123-6.052-2.118-8.366c-9.005-10.446-26.03-22.819-34.603-28.76c15.847-4.278,47.787,3.987,60.089,8.024   c1.036,0.341,2.178,0.17,3.07-0.463c0.892-0.631,1.433-1.649,1.454-2.742c0.455-21.697-4.209-36.435-8.419-45.222   c10.774,5.075,28.34,14.031,43.592,24.955c3.491,2.499,6.315,5.904,8.165,9.85c24.227,51.621,40.209,102.674,50.303,160.668   c5.156,29.588-0.191,56.96-5.854,85.938c-9.197,47.011-20.896,86.81-35.739,121.543l-9.793-2.481   c4.255-13.136,19.245-59.95,25.128-85.446c0.43-1.857-0.729-3.709-2.585-4.138c-1.858-0.425-3.708,0.729-4.138,2.585   c-5.892,25.529-21.079,72.875-25.107,85.301l-34.88-8.839c1.121-4.869,3.398-14.817,6.284-27.714   c0.004-0.018,0.008-0.035,0.012-0.054c0-0.002,0.001-0.004,0.002-0.006c5.657-25.313,10.74-48.892,15.118-70.12   c0.184-0.427,0.283-0.889,0.282-1.367c19.292-94.06,16.705-103.715,15.854-106.89c-0.494-1.84-2.385-2.932-4.227-2.438   c-1.84,0.494-2.932,2.386-2.438,4.226c1.058,3.941,0.615,20.951-13.033,89.312l-14.696-58.647c-0.464-1.85-2.333-2.971-4.186-2.509   c-1.848,0.464-2.971,2.337-2.508,4.185l18.208,72.662c-4.219,20.467-9.103,43.145-14.522,67.444h-41.4   c-1.906,0-3.45,1.544-3.45,3.45c0,1.904,1.544,3.449,3.45,3.449h39.857c-3.613,16.089-6.063,26.637-6.089,26.75   c-0.426,1.83,0.691,3.664,2.513,4.125l57.5,14.571c0.282,0.071,0.567,0.106,0.849,0.106c1.346,0,2.604-0.793,3.162-2.074   c15.596-35.83,27.812-76.935,37.344-125.663C456.137,325.73,461.858,296.447,456.482,265.604z M293.182,37.115   c-0.043,4.027-0.231,11.318-0.942,20.125h-72.523c-0.716-8.809-0.9-16.099-0.941-20.125H293.182z M291.598,64.14   c-1.94,18.322-5.486,33.947-10.312,45.382c-1.407,2.33-14.024,23.252-25.31,42.72c-11.273-19.459-23.897-40.391-25.304-42.72   c-5.957-14.12-8.877-31.824-10.31-45.382H291.598z M184.515,106.456c-9.014,1.771-16.997,3.954-21.729,5.345   c0.438-29.564,11.122-43.729,12.75-45.717c0.053-0.049,0.112-0.09,0.162-0.143c18.994-19.988,30.782-26.113,36.183-27.991   c0.062,4.769,0.313,13.072,1.236,23.054c1.128,12.313,3.506,29.114,8.469,43.91C212.932,102.803,200.53,103.308,184.515,106.456z    M220.5,111.735c-6.839,4.74-19.014,13.548-28.216,22.201l-3.183-21.317C202.752,110.185,213.554,109.894,220.5,111.735z    M192.186,149.434c-0.843-0.391-1.439-1.136-1.636-2.045c-0.11-0.51-0.179-1.501,0.602-2.406c0.397-0.461,0.815-0.934,1.271-1.424   c9.545-10.391,27.111-22.806,34.086-27.574c4.395,7.304,15.754,26.266,25.487,43.161c-4.695,8.192-8.211,14.524-10.646,19.175   c-19.647-14.258-38.544-23.913-48.308-28.496C192.775,149.706,192.517,149.586,192.186,149.434z M216.946,234.652   c-3.29,12.239-4.197,22.672-2.699,31.012l3.785,40.672l-22.013-147.4c10.407,5.199,26.101,13.842,42.229,25.659   c-0.286,0.638-0.528,1.209-0.711,1.691C235.897,189.115,223.204,211.422,216.946,234.652z M320.808,144.983   c0.779,0.904,0.711,1.895,0.601,2.405c-0.196,0.909-0.793,1.655-1.633,2.044c-9.367,4.335-28.026,13.72-47.754,27.859   c-16.109,11.545-29.655,23.868-40.517,36.805c5.928-13.938,12.046-24.428,12.138-24.584c0.109-0.186,0.2-0.38,0.273-0.583   c0.211-0.591,0.71-1.789,1.878-4.143c2.449-4.945,7.022-13.242,13.595-24.66c9.867-17.145,21.582-36.698,26.06-44.142   C292.743,120.973,311.623,134.329,320.808,144.983z M349.163,111.801c-5.081-1.495-13.909-3.9-23.724-5.726   c-15.044-2.799-26.765-3.173-35.049-1.16c4.015-11.912,6.849-26.595,8.44-43.794c0.926-10.059,1.181-18.422,1.244-23.203   c5.332,1.849,17.138,7.938,36.187,27.986C337.154,66.94,348.719,80.94,349.163,111.801z"/>
<path d="M387.568,103.077c-1.893-0.267-3.629,1.059-3.889,2.946c-0.024,0.168-2.334,17.076-3.479,39.105   c-1.542,29.677-0.357,54.062,3.52,72.478c0.343,1.625,1.775,2.74,3.372,2.74c0.236,0,0.476-0.024,0.715-0.075   c1.864-0.393,3.058-2.222,2.665-4.086c-8.969-42.599-0.05-108.557,0.041-109.218C390.774,105.079,389.455,103.337,387.568,103.077z   "/>
<path d="M292.468,429.335h-1.16c-1.906,0-3.45,1.544-3.45,3.45c0,1.904,1.544,3.449,3.45,3.449h1.16c1.905,0,3.45-1.545,3.45-3.449   C295.918,430.879,294.373,429.335,292.468,429.335z"/>
<path d="M351.69,162.839c-1.489-1.189-3.66-0.945-4.849,0.543l-52.9,66.24c-1.188,1.489-0.946,3.66,0.543,4.849   c0.636,0.507,1.396,0.754,2.15,0.754c1.014,0,2.018-0.444,2.698-1.297l52.899-66.24C353.422,166.2,353.18,164.029,351.69,162.839z"/>
</g>
</svg>