<!DOCTYPE svg PUBLIC "-//W3C//DTD SVG 1.1//EN" "http://www.w3.org/Graphics/SVG/1.1/DTD/svg11.dtd">
<!-- Uploaded to: SVG Repo, www.svgrepo.com, Transformed by: SVG Repo Mixer Tools -->
<svg fill="#000000" width="800px" height="800px" viewBox="0 0 512 512" enable-background="new 0 0 512 512" id="Pants" version="1.1" xml:space="preserve" xmlns="http://www.w3.org/2000/svg" xmlns:xlink="http://www.w3.org/1999/xlink">
<g id="SVGRepo_bgCarrier" stroke-width="0"/>
<g id="SVGRepo_tracerCarrier" stroke-linecap="round" stroke-linejoin="round"/>
<g id="SVGRepo_iconCarrier"> <g> <path d="M171.597,151.958c0.073,0.005,0.146,0.007,0.219,0.007c1.807,0,3.325-1.406,3.439-3.234l0.094-1.443 c0.123-1.901-1.317-3.543-3.219-3.668c-1.896-0.113-3.544,1.317-3.668,3.219l-0.093,1.461 C168.25,150.201,169.695,151.839,171.597,151.958z"/> <path d="M333.692,50.508c-0.004-0.032-0.01-0.063-0.015-0.095l-0.104-0.722c-0.05-0.35-0.1-0.69-0.146-0.978 c-0.005-0.037-0.01-0.076-0.016-0.113l-0.001-0.001c-0.042-0.312-0.088-0.621-0.135-0.928l-0.634-4.187 c-0.084-0.562-0.168-1.113-0.25-1.625l-0.491-3.056c-0.106-0.692-0.214-1.36-0.311-1.936c-0.052-0.354-0.108-0.698-0.163-1.035 l-0.106-0.65c-0.505-3.019-0.951-5.603-1.338-7.805l-0.073-0.389c-0.045-0.237-0.088-0.467-0.133-0.688 c-0.034-0.187-0.067-0.372-0.092-0.551c-0.242-1.701-1.698-2.966-3.416-2.966H185.731c-1.719,0-3.176,1.265-3.417,2.966 c-0.024,0.179-0.059,0.364-0.089,0.542c-0.048,0.229-0.091,0.459-0.136,0.696l-0.085,0.452c-0.375,2.139-0.821,4.723-1.332,7.78 l-0.101,0.611c-0.055,0.337-0.111,0.681-0.152,0.966c-0.107,0.645-0.215,1.313-0.315,1.968l-0.497,3.079 c-0.082,0.525-0.167,1.077-0.25,1.633l-0.635,4.192c-0.049,0.328-0.099,0.658-0.135,0.929c-0.056,0.358-0.108,0.723-0.161,1.091 l-0.089,0.604c-0.007,0.054-0.017,0.111-0.023,0.165c-3.291,22.53-6.035,47.149-8.156,73.175c-0.154,1.899,1.26,3.563,3.158,3.719 c0.096,0.008,0.191,0.011,0.284,0.011c1.779,0,3.288-1.365,3.436-3.17c1.997-24.5,4.554-47.718,7.601-69.159 c17.668,3.281,39.364,5.28,61.966,5.709c-2.6,9.911-3.314,18.014-2.124,24.129c0.32,1.647,1.765,2.792,3.383,2.792 c0.218,0,0.44-0.021,0.662-0.065c1.87-0.363,3.092-2.174,2.727-4.045c-1.039-5.344-0.178-13.169,2.482-22.731 c0.756,0.004,1.509,0.011,2.268,0.011c0.702,0,1.401-0.007,2.103-0.01c2.66,9.559,3.526,17.386,2.494,22.736 c-0.361,1.871,0.862,3.68,2.733,4.04c0.22,0.043,0.44,0.064,0.657,0.064c1.62,0,3.065-1.147,3.384-2.798 c1.182-6.116,0.461-14.217-2.138-24.12c22.671-0.421,44.433-2.422,62.139-5.713c4.835,34.029,10.655,88.307,12.114,159.143 l-5.4,148.107c-0.07,1.904,1.418,3.504,3.321,3.573c0.043,0.001,0.085,0.002,0.128,0.002c1.848,0,3.379-1.463,3.446-3.324 l5.403-148.205c0.002-0.065,0.004-0.132,0.002-0.196C344.872,140.363,338.645,84.41,333.692,50.508z M255.865,53.914 c0.018-0.051,0.035-0.102,0.053-0.152c0.017,0.051,0.034,0.102,0.052,0.152C255.935,53.914,255.9,53.914,255.865,53.914z M263.223,53.876c-2.033-6.343-3.963-10.848-4.055-11.059c-0.572-1.331-1.883-2.113-3.25-2.08c-1.365-0.033-2.678,0.749-3.25,2.08 c-0.092,0.211-2.021,4.717-4.056,11.058c-23.024-0.346-45.156-2.339-62.993-5.674l0.563-3.698c0.08-0.539,0.16-1.065,0.242-1.583 l0.492-3.056c0.104-0.665,0.206-1.308,0.321-1.997c0.045-0.313,0.095-0.612,0.144-0.909l0.104-0.636 c0.424-2.537,0.806-4.764,1.133-6.636h134.766c0.331,1.901,0.711,4.11,1.127,6.597l0.109,0.675 c0.049,0.297,0.099,0.597,0.155,0.979c0.103,0.62,0.205,1.263,0.315,1.965l0.487,3.032c0.081,0.504,0.161,1.03,0.241,1.575 l0.562,3.693C308.508,51.547,286.315,53.54,263.223,53.876z"/> <path d="M335.914,406.821c-1.894-0.056-3.503,1.419-3.574,3.322l-2.632,72.17h-45.491l-24.778-301.401 c-0.147-1.789-1.643-3.166-3.438-3.166s-3.292,1.377-3.439,3.166l-24.777,301.401h-45.491l-9.778-268.136 c0.292-14.169,0.778-28.391,1.445-42.269c0.092-1.903-1.377-3.521-3.279-3.612c-0.057-0.003-0.113-0.004-0.168-0.004 c-1.83,0-3.355,1.438-3.443,3.283c-0.673,13.976-1.162,28.293-1.455,42.559c-0.002,0.064,0,0.131,0.002,0.196l9.902,271.559 c0.068,1.854,1.592,3.324,3.448,3.324h51.995c1.797,0,3.292-1.378,3.439-3.167L256,223.303l21.6,262.744 c0.147,1.789,1.643,3.167,3.438,3.167h51.996c1.856,0,3.38-1.47,3.448-3.324l2.753-75.495 C339.306,408.49,337.817,406.891,335.914,406.821z"/> <path d="M336.802,382.384c-1.878-0.052-3.503,1.421-3.571,3.324l-0.043,1.218c-0.069,1.903,1.419,3.502,3.324,3.57 c0.041,0.002,0.084,0.003,0.125,0.003c1.849,0,3.379-1.465,3.445-3.327l0.044-1.217 C340.195,384.052,338.707,382.452,336.802,382.384z"/> </g> </g>
</svg>