<?xml version="1.0" ?>
<!DOCTYPE svg  PUBLIC '-//W3C//DTD SVG 1.1//EN'  'http://www.w3.org/Graphics/SVG/1.1/DTD/svg11.dtd'>
<!-- Uploaded to: SVG Repo, www.svgrepo.com, Generator: SVG Repo Mixer Tools -->
<svg fill="#000000" width="800px" height="800px" viewBox="0 0 512 512" enable-background="new 0 0 512 512" id="Shirt_x5F_men" version="1.1" xml:space="preserve" xmlns="http://www.w3.org/2000/svg" xmlns:xlink="http://www.w3.org/1999/xlink">
<g>
<path d="M256,124.222c3.369,0,6.106-2.726,6.106-6.095s-2.737-6.106-6.106-6.106c-3.37,0-6.106,2.737-6.106,6.106   S252.63,124.222,256,124.222z"/>
<path d="M256,180.353c3.369,0,6.106-2.737,6.106-6.106s-2.737-6.095-6.106-6.095c-3.37,0-6.106,2.726-6.106,6.095   S252.63,180.353,256,180.353z"/>
<path d="M256,236.473c3.369,0,6.106-2.726,6.106-6.095s-2.737-6.106-6.106-6.106c-3.37,0-6.106,2.737-6.106,6.106   S252.63,236.473,256,236.473z"/>
<path d="M256,292.604c3.369,0,6.106-2.726,6.106-6.095s-2.737-6.106-6.106-6.106c-3.37,0-6.106,2.737-6.106,6.106   S252.63,292.604,256,292.604z"/>
<path d="M256,348.736c3.369,0,6.106-2.737,6.106-6.107c0-3.369-2.737-6.094-6.106-6.094c-3.37,0-6.106,2.725-6.106,6.094   C249.894,345.999,252.63,348.736,256,348.736z"/>
<path d="M256,404.855c3.369,0,6.106-2.725,6.106-6.094c0-3.37-2.737-6.107-6.106-6.107c-3.37,0-6.106,2.737-6.106,6.107   C249.894,402.131,252.63,404.855,256,404.855z"/>
<path d="M454.928,221.526l-34.229-69.402l-5.104-10.35l-10.209-20.7l-16.925-34.318c-8.232-18.287-23.654-23.853-25.156-24.357   L312.285,43.2L294.548,23.68c-0.019-0.021-0.042-0.035-0.062-0.055c-0.086-0.089-0.181-0.166-0.275-0.246   c-0.085-0.072-0.166-0.148-0.258-0.212c-0.074-0.051-0.155-0.088-0.232-0.133c-0.521-0.303-1.11-0.484-1.727-0.484h-71.989   c-0.004,0-0.007,0.001-0.01,0.001c-0.479,0-0.94,0.102-1.363,0.286c-0.063,0.028-0.12,0.067-0.181,0.098   c-0.144,0.073-0.286,0.147-0.417,0.239c-0.069,0.048-0.129,0.106-0.195,0.16c-0.115,0.093-0.228,0.187-0.33,0.294   c-0.018,0.019-0.04,0.032-0.057,0.051L199.715,43.2l-51.021,19.198c-1.502,0.504-16.924,6.069-25.156,24.356L57.072,221.526   c-0.82,1.663-0.179,3.677,1.452,4.56l79.296,42.929l-3.627,185.188c-0.023,1.165,0.544,2.264,1.508,2.919   c0.32,0.219,8.007,5.409,22.325,11.627c0.448,0.194,0.914,0.286,1.373,0.286c1.333-0.001,2.602-0.776,3.166-2.077   c0.759-1.747-0.042-3.779-1.791-4.539c-10.093-4.382-16.801-8.268-19.645-10.018l3.631-185.353c0-0.015-0.002-0.028-0.002-0.042   c0-0.008,0.003-0.017,0.003-0.025V169.37c0-1.905-1.545-3.45-3.45-3.45s-3.45,1.545-3.45,3.45v91.821L64.729,221.6l65.023-131.848   c0.019-0.038,0.037-0.076,0.054-0.114c7.162-15.963,20.963-20.66,21.089-20.701c0.054-0.018,0.108-0.037,0.162-0.057l47.555-17.894   c3.48,29.621,32.179,61.907,33.465,63.337c0.656,0.73,1.589,1.145,2.566,1.145c0.052,0,0.105-0.001,0.158-0.003   c1.034-0.047,1.991-0.556,2.608-1.386L256,89.125l18.589,24.955c0.617,0.83,1.575,1.338,2.608,1.386   c0.053,0.002,0.105,0.003,0.158,0.003c0.977,0,1.91-0.415,2.566-1.145c1.285-1.431,29.984-33.717,33.465-63.337l47.555,17.894   c0.054,0.02,0.107,0.039,0.162,0.057c0.138,0.044,13.867,4.604,21.09,20.701c0.018,0.038,0.035,0.076,0.054,0.113l16.952,34.374   l10.209,20.7l5.104,10.35l32.759,66.424l-73.131,39.591V169.37c0-1.905-1.545-3.45-3.45-3.45s-3.45,1.545-3.45,3.45v97.612   c0,0.009,0.003,0.018,0.003,0.025c0,0.014-0.002,0.027-0.002,0.042l3.631,185.35c-8.346,5.117-49.972,28.536-114.871,30.149   c-14.99-0.373-29.863-1.94-44.208-4.66c-1.868-0.356-3.677,0.875-4.032,2.747c-0.355,1.872,0.875,3.677,2.746,4.032   c14.738,2.794,30.016,4.403,45.408,4.781c0.028,0,0.057,0.001,0.085,0.001s0.057-0.001,0.085-0.001   c74.587-1.832,118.386-31.081,120.214-32.326c0.964-0.655,1.531-1.754,1.508-2.919l-3.627-185.188l79.297-42.929   C455.106,225.204,455.748,223.189,454.928,221.526z M223.164,29.45h65.669c0.067,2.62-0.167,6.918-1.678,12.19H224.84   C223.327,36.369,223.096,32.067,223.164,29.45z M234.47,106.48c-7.531-9.164-28.024-36.103-29.249-59.08l11.291-12.425   c0.339,3.179,1.069,6.99,2.53,11.236c6.019,17.526,20.121,30.107,31.987,38.037L234.47,106.48z M255.989,79.253   c-16.4-10.653-24.545-21.921-28.584-30.713h57.177C279.373,59.9,269.591,70.419,255.989,79.253z M277.529,106.478l-16.556-22.226   c16.083-10.696,26.782-23.327,31.825-37.586c1.564-4.428,2.336-8.4,2.689-11.691L306.779,47.4   C305.554,70.353,285.059,97.309,277.529,106.478z"/>
<path d="M188.553,472.331c-0.364-0.101-0.717-0.204-1.058-0.309c-1.82-0.559-3.752,0.464-4.311,2.285   c-0.56,1.821,0.463,3.751,2.285,4.311c0.401,0.123,0.815,0.243,1.242,0.362c0.308,0.085,0.618,0.126,0.922,0.126   c1.512,0,2.9-1.002,3.323-2.53C191.465,474.74,190.389,472.84,188.553,472.331z"/>
<path d="M320.704,265.958c0.381,0.139,0.78,0.208,1.179,0.208c0.4,0,0.799-0.069,1.18-0.208l33.557-12.201   c1.364-0.496,2.271-1.792,2.271-3.242v-50.037v-21.954c0-1.905-1.545-3.45-3.45-3.45h-67.103c-1.905,0-3.449,1.545-3.449,3.45   v21.954v50.037c0,1.45,0.906,2.746,2.27,3.242L320.704,265.958z M291.788,181.975h60.202v15.054h-60.202V181.975z M291.788,203.928   h60.202v44.169l-30.107,10.947l-30.095-10.947V203.928z"/>
</g>
</svg>